<svg width="62" height="62" viewBox="0 0 62 62" fill="none" xmlns="http://www.w3.org/2000/svg">
<path d="M30.5088 0C47.3584 0 61.0184 13.6592 61.0186 30.5088C61.0186 47.3585 47.3585 61.0186 30.5088 61.0186C13.6592 61.0184 0 47.3584 0 30.5088C0.000194832 13.6593 13.6593 0.000194821 30.5088 0ZM22.0537 31.4971C19.8758 31.6069 18.7596 33.8768 19.5283 35.6338C19.931 36.5304 20.5351 36.8601 21.377 37.3359C22.8776 38.2143 24.5797 38.8735 26.4463 39.3311C26.2791 39.5896 21.8548 43.9401 21.5049 44.29C20.7912 44.9855 19.711 45.8643 20.0586 47.6211C20.5893 50.3663 23.4633 50.6233 25.4033 48.665C25.8425 48.2258 30.2702 43.7789 30.5273 43.6133C30.8019 43.778 31.1862 44.2174 31.4424 44.4736L35.8535 48.9023C36.4575 49.5246 37.1713 49.9641 38.4707 49.9092C39.4589 49.653 40.1909 49.2683 40.6484 48.4082C40.7948 48.1521 40.9226 47.841 40.9775 47.5117C41.2887 45.8096 40.1723 44.9123 39.4951 44.2168C39.1451 43.8668 34.7942 39.6079 34.627 39.3311C36.5669 38.8552 38.1777 38.1773 39.7334 37.2988C40.575 36.8414 41.1969 36.4572 41.5264 35.5059C42.2767 33.4378 40.6846 31.4793 38.708 31.5342C37.5554 31.5709 37.0428 32.156 36.2012 32.5586C32.3578 34.3339 28.4594 34.3526 24.6709 32.4492C23.8839 32.0466 23.1884 31.4239 22.0537 31.4971ZM38.4336 14.9707C36.585 12.4452 32.8329 10.7253 29.7949 11.1279C27.5624 11.4208 26.0613 11.8962 24.3594 13.2139C23.6093 13.7993 23.0972 14.3303 22.5117 15.0986C21.981 15.7757 21.4867 16.6911 21.1572 17.5146C19.8395 20.9554 20.5532 24.4147 22.6396 27.2881C23.5548 28.5326 25.5132 29.9785 26.959 30.4727C28.4047 30.9667 29.5761 31.2048 31.2598 31.1133C38.3241 30.6739 42.7527 22.9873 39.4219 16.4902C39.1107 15.8863 38.7996 15.4649 38.4336 14.9707ZM29.832 17.0391C31.0765 16.7829 32.3212 17.2767 33.0898 17.8623C35.8351 19.9487 34.8833 24.5791 31.2412 25.2197C28.7339 25.659 26.7572 23.8108 26.4277 21.7793C26.08 19.5648 27.4894 17.5149 29.832 17.0391Z" fill="#E69797"/>
</svg>
