<svg width="10" height="10" viewBox="0 0 10 10" fill="none" xmlns="http://www.w3.org/2000/svg">
<path d="M5 0C2.24 0 0 2.24 0 5C0 7.76 2.24 10 5 10C7.76 10 10 7.76 10 5C10 2.24 7.76 0 5 0ZM7.32 3.4C7.245 4.19 6.92 6.11 6.755 6.995C6.685 7.37 6.545 7.495 6.415 7.51C6.125 7.535 5.905 7.32 5.625 7.135C5.185 6.845 4.935 6.665 4.51 6.385C4.015 6.06 4.335 5.88 4.62 5.59C4.695 5.515 5.975 4.35 6 4.245C6.00347 4.2291 6.00301 4.21259 5.99865 4.1969C5.9943 4.18122 5.98618 4.16683 5.975 4.155C5.945 4.13 5.905 4.14 5.87 4.145C5.825 4.155 5.125 4.62 3.76 5.54C3.56 5.675 3.38 5.745 3.22 5.74C3.04 5.735 2.7 5.64 2.445 5.555C2.13 5.455 1.885 5.4 1.905 5.225C1.915 5.135 2.04 5.045 2.275 4.95C3.735 4.315 4.705 3.895 5.19 3.695C6.58 3.115 6.865 3.015 7.055 3.015C7.095 3.015 7.19 3.025 7.25 3.075C7.3 3.115 7.315 3.17 7.32 3.21C7.315 3.24 7.325 3.33 7.32 3.4Z" fill="#E69797"/>
</svg>
