<svg width="9" height="11" viewBox="0 0 9 11" fill="none" xmlns="http://www.w3.org/2000/svg">
<path fill-rule="evenodd" clip-rule="evenodd" d="M2 0C1.46957 0 0.960859 0.210714 0.585786 0.585786C0.210714 0.960859 0 1.46957 0 2V7C0 7.53043 0.210714 8.03914 0.585786 8.41421C0.960859 8.78929 1.46957 9 2 9H7C7.53043 9 8.03914 8.78929 8.41421 8.41421C8.78929 8.03914 9 7.53043 9 7V2C9 1.46957 8.78929 0.960859 8.41421 0.585786C8.03914 0.210714 7.53043 0 7 0H2ZM7.166 3.5275C7.2396 3.41717 7.26635 3.28212 7.24038 3.15207C7.2144 3.02201 7.13783 2.9076 7.0275 2.834C6.91717 2.7604 6.78212 2.73365 6.65207 2.75962C6.52201 2.7856 6.4076 2.86217 6.334 2.9725C6.157 3.2075 5.9715 3.4325 5.7545 3.6325C5.503 3.8645 5.2485 4.0385 5.0005 4.1415L4.9965 3.1915C4.98217 3.06987 4.9237 2.95774 4.83219 2.87636C4.74067 2.79498 4.62247 2.75002 4.5 2.75C4.229 2.7655 4 2.9655 4 3.25V5.4365C3.026 5.1665 2.5 4.2215 2.5 3.25C2.5 3.11739 2.44732 2.99021 2.35355 2.89645C2.25979 2.80268 2.13261 2.75 2 2.75C1.86739 2.75 1.74021 2.80268 1.64645 2.89645C1.55268 2.99021 1.5 3.11739 1.5 3.25C1.5 5.066 2.755 6.5 4.5 6.5C4.63261 6.5 4.75979 6.44732 4.85355 6.35355C4.94732 6.25979 5 6.13261 5 6V5.2185C5.666 5.2715 6.312 5.742 6.553 6.2235C6.58108 6.28429 6.62109 6.33882 6.67064 6.38385C6.7202 6.42889 6.77829 6.46351 6.84149 6.48566C6.90468 6.50782 6.97167 6.51705 7.0385 6.51282C7.10533 6.50859 7.17063 6.49098 7.23052 6.46103C7.29041 6.43109 7.34368 6.38942 7.38716 6.33849C7.43064 6.28757 7.46345 6.22843 7.48364 6.16459C7.50383 6.10074 7.51099 6.03349 7.5047 5.96683C7.4984 5.90016 7.47878 5.83544 7.447 5.7765C7.208 5.298 6.762 4.8505 6.213 4.5585C6.287 4.49783 6.36033 4.43417 6.433 4.3675C6.70849 4.1163 6.95442 3.83447 7.166 3.5275Z" fill="#E69797"/>
</svg>
