<svg width="10" height="10" viewBox="0 0 10 10" fill="none" xmlns="http://www.w3.org/2000/svg">
<path d="M8.5 1.45503C8.04153 0.99208 7.49551 0.62501 6.89375 0.375208C6.292 0.125406 5.64654 -0.00213158 4.995 2.69476e-05C2.265 2.69476e-05 0.0400001 2.22503 0.0400001 4.95503C0.0400001 5.83003 0.27 6.68003 0.7 7.43003L0 10L2.625 9.31003C3.35 9.70503 4.165 9.91503 4.995 9.91503C7.725 9.91503 9.95 7.69003 9.95 4.96003C9.95 3.63503 9.435 2.39003 8.5 1.45503ZM4.995 9.07503C4.255 9.07503 3.53 8.87503 2.895 8.50003L2.745 8.41003L1.185 8.82003L1.6 7.30003L1.5 7.14503C1.08877 6.48856 0.870462 5.72966 0.87 4.95503C0.87 2.68503 2.72 0.835027 4.99 0.835027C6.09 0.835027 7.125 1.26503 7.9 2.04503C8.28381 2.42696 8.58796 2.8813 8.79481 3.38169C9.00166 3.88208 9.1071 4.41857 9.105 4.96003C9.115 7.23003 7.265 9.07503 4.995 9.07503ZM7.255 5.99503C7.13 5.93503 6.52 5.63503 6.41 5.59003C6.295 5.55003 6.215 5.53003 6.13 5.65003C6.045 5.77503 5.81 6.05503 5.74 6.13503C5.67 6.22003 5.595 6.23003 5.47 6.16503C5.345 6.10503 4.945 5.97003 4.475 5.55003C4.105 5.22003 3.86 4.81503 3.785 4.69003C3.715 4.56503 3.775 4.50003 3.84 4.43503C3.895 4.38003 3.965 4.29003 4.025 4.22003C4.085 4.15003 4.11 4.09503 4.15 4.01503C4.19 3.93003 4.17 3.86003 4.14 3.80003C4.11 3.74003 3.86 3.13003 3.76 2.88003C3.66 2.64003 3.555 2.67003 3.48 2.66503H3.24C3.155 2.66503 3.025 2.69503 2.91 2.82003C2.8 2.94503 2.48 3.24503 2.48 3.85503C2.48 4.46503 2.925 5.05503 2.985 5.13503C3.045 5.22003 3.86 6.47003 5.1 7.00503C5.395 7.13503 5.625 7.21003 5.805 7.26503C6.1 7.36003 6.37 7.34503 6.585 7.31503C6.825 7.28003 7.32 7.01503 7.42 6.72503C7.525 6.43503 7.525 6.19003 7.49 6.13503C7.455 6.08003 7.38 6.05503 7.255 5.99503Z" fill="#E69797"/>
</svg>
